# Blender v2.77 (sub 0) OBJ File: ''
# www.blender.org
mtllib powerUpP.mtl
o Power_up_P
v -4.291617 -2.078419 4.596628
v -4.291617 -4.151051 2.523987
v -2.218976 -4.151051 4.596628
v 3.998928 -4.151051 2.523987
v 3.998928 -2.078419 4.596628
v 1.926286 -4.151051 4.596628
v -4.291617 4.139507 2.523988
v -4.291617 2.066865 4.596629
v -2.218976 4.139507 4.596629
v 3.998928 2.066865 4.596629
v 3.998928 4.139507 2.523988
v 1.926286 4.139507 4.596629
v -4.291617 2.066866 -3.693927
v -4.291617 4.139508 -1.621285
v -2.218976 4.139508 -3.693926
v 3.998928 4.139508 -1.621285
v 3.998928 2.066866 -3.693927
v 1.926286 4.139508 -3.693926
v -4.291617 -4.151050 -1.621286
v -4.291617 -2.078418 -3.693927
v -2.218976 -4.151050 -3.693928
v 3.998928 -2.078418 -3.693927
v 3.998928 -4.151050 -1.621286
v 1.926286 -4.151050 -3.693928
v -2.453628 2.346573 -0.684887
v -0.764039 2.346573 -0.684887
v -0.764039 2.920245 -1.258571
v -2.453628 2.920245 -1.258571
v -0.764039 1.569368 -2.609459
v -2.453628 1.569368 -2.609459
v -0.764039 0.995685 -2.035775
v -2.453628 0.995685 -2.035775
v -2.453628 -2.797698 1.757617
v -0.764039 -2.797698 1.757617
v -0.764039 -1.446821 3.108495
v -2.453628 -1.446821 3.108495
v 1.959958 2.346573 -0.684887
v 1.959958 0.995685 -2.035775
v 1.959958 1.569368 -2.609459
v 1.959958 2.920245 -1.258571
v -2.453628 1.030368 0.631317
v -0.764039 1.030368 0.631317
v -0.764039 -0.320520 -0.719561
v -2.453628 -0.320520 -0.719561
v 1.080255 0.995685 -2.035775
v 1.080255 1.569368 -2.609459
v 1.080255 2.920245 -1.258571
v 1.080255 2.346573 -0.684887
v -2.453628 0.419879 1.241796
v -0.764039 0.419879 1.241796
v 1.949706 0.419879 1.241796
v 1.949706 -0.930997 -0.109081
v 1.949706 -0.320520 -0.719561
v 1.949706 1.030368 0.631317
v -0.764039 -0.930997 -0.109081
v -2.453628 -0.930997 -0.109081
v 1.073072 0.419879 1.241796
v 1.073072 -0.930997 -0.109081
v 1.073072 -0.320520 -0.719561
v 1.073072 1.030368 0.631317
v 2.880151 0.992111 -2.032190
v 2.880151 2.342987 -0.681312
v 2.869900 1.026782 0.634892
v 2.869900 -0.324106 -0.715986
vt 0.8565 0.5799
vt 0.8545 0.5725
vt 0.8619 0.5745
vt 0.8825 0.5745
vt 0.8775 0.5803
vt 0.8726 0.5744
vt 0.8546 0.5981
vt 0.8565 0.5907
vt 0.8619 0.5961
vt 0.8774 0.5902
vt 0.8819 0.5963
vt 0.8727 0.5962
vt 0.8973 0.6236
vt 0.8921 0.6181
vt 0.8995 0.6163
vt 0.8927 0.5965
vt 0.8982 0.5913
vt 0.9000 0.5987
vt 0.8915 0.6396
vt 0.8970 0.6343
vt 0.8988 0.6417
vt 0.8813 0.6178
vt 0.8761 0.6122
vt 0.8764 0.6015
vt 0.8985 0.5804
vt 0.8932 0.5749
vt 0.9007 0.5731
vt 0.8807 0.6393
vt 0.8755 0.6338
vt 0.8758 0.6230
vt 0.8564 0.5583
vt 0.8618 0.5529
vt 0.8725 0.5529
vt 0.8779 0.5582
vt 0.8563 0.5368
vt 0.8617 0.5314
vt 0.8563 0.5476
vt 0.8724 0.5314
vt 0.8778 0.5367
vt 0.8779 0.5475
vt 0.8979 0.6021
vt 0.8976 0.6128
vt 0.8564 0.5691
vt 0.8780 0.5690
vt 0.4058 0.4809
vt 0.4423 0.4814
vt 0.4421 0.4988
vt 0.4056 0.4983
vt 0.4416 0.5025
vt 0.4051 0.5020
vt 0.4418 0.4851
vt 0.4053 0.4846
vt 0.4068 0.3693
vt 0.4432 0.3698
vt 0.4437 0.3661
vt 0.4073 0.3656
vt 0.5010 0.4822
vt 0.5005 0.4859
vt 0.5003 0.5033
vt 0.5008 0.4996
vt 0.4063 0.4409
vt 0.4428 0.4414
vt 0.4423 0.4451
vt 0.4058 0.4446
vt 0.4816 0.4856
vt 0.4813 0.5031
vt 0.4819 0.4994
vt 0.4821 0.4819
vt 0.4066 0.4224
vt 0.4430 0.4229
vt 0.5016 0.4236
vt 0.5010 0.4273
vt 0.5008 0.4459
vt 0.5013 0.4422
vt 0.4425 0.4265
vt 0.4061 0.4261
vt 0.4826 0.4234
vt 0.4821 0.4271
vt 0.4819 0.4456
vt 0.4824 0.4419
vt 0.5204 0.4860
vt 0.5209 0.4823
vt 0.5212 0.4423
vt 0.5207 0.4460
vn -0.5773 -0.5774 0.5773
vn 0.5773 -0.5774 0.5773
vn -0.5774 0.5773 0.5774
vn 0.5774 0.5773 0.5774
vn -0.5774 0.5774 -0.5774
vn 0.0000 -0.0000 1.0000
vn 0.5774 0.5774 -0.5774
vn -0.5773 -0.5774 -0.5773
vn 0.0000 1.0000 0.0000
vn 0.5773 -0.5774 -0.5773
vn -1.0000 0.0000 0.0000
vn 1.0000 0.0000 0.0000
vn 0.0000 -1.0000 -0.0000
vn 0.0000 0.0000 -1.0000
vn 0.0000 0.7071 0.7071
vn 0.0000 0.7071 -0.7071
vn 0.0000 -0.7071 -0.7071
vn 0.0000 -0.7071 0.7071
vn 1.0000 -0.0039 0.0039
vn -1.0000 0.0027 -0.0027
vn 0.0055 0.7071 -0.7071
vn -0.0055 -0.7071 0.7071
usemtl None
s off
f 1/1/1 2/2/1 3/3/1
f 4/4/2 5/5/2 6/6/2
f 7/7/3 8/8/3 9/9/3
f 10/10/4 11/11/4 12/12/4
f 13/13/5 14/14/5 15/15/5
f 12/12/6 6/6/6 5/5/6 10/10/6
f 16/16/7 17/17/7 18/18/7
f 19/19/8 20/20/8 21/21/8
f 7/22/9 9/23/9 12/24/9 11/11/9
f 22/25/10 23/26/10 24/27/10
f 7/22/11 2/28/11 1/29/11 8/30/11
f 16/16/12 23/26/12 22/25/12 17/17/12
f 19/31/13 21/32/13 24/33/13 23/34/13
f 13/35/14 15/36/14 21/32/14 20/37/14
f 1/1/6 3/3/6 9/9/6 8/8/6
f 9/9/6 3/3/6 6/6/6 12/12/6
f 5/5/12 4/4/12 11/11/12 10/10/12
f 11/11/12 4/4/12 23/26/12 16/16/12
f 24/33/14 18/38/14 17/39/14 22/40/14
f 21/32/14 15/36/14 18/38/14 24/33/14
f 20/20/11 19/19/11 14/14/11 13/13/11
f 14/14/11 19/19/11 2/28/11 7/22/11
f 14/14/9 16/16/9 18/41/9 15/42/9
f 7/22/9 11/11/9 16/16/9 14/14/9
f 2/43/13 4/44/13 6/6/13 3/3/13
f 19/31/13 23/34/13 4/44/13 2/43/13
f 25/45/15 26/46/15 27/47/15 28/48/15
f 28/48/16 27/47/16 29/49/16 30/50/16
f 30/50/17 29/49/17 31/51/17 32/52/17
f 33/53/18 34/54/18 35/55/18 36/56/18
f 37/57/12 38/58/12 39/59/12 40/60/12
f 32/52/11 25/45/11 28/48/11 30/50/11
f 41/61/15 42/62/15 26/46/15 25/45/15
f 42/62/12 43/63/12 31/51/12 26/46/12
f 32/52/17 31/51/17 43/63/17 44/64/17
f 44/64/11 41/61/11 25/45/11 32/52/11
f 45/65/17 46/66/17 39/59/17 38/58/17
f 46/66/16 47/67/16 40/60/16 39/59/16
f 47/67/15 48/68/15 37/57/15 40/60/15
f 49/69/15 50/70/15 42/62/15 41/61/15
f 51/71/12 52/72/12 53/73/12 54/74/12
f 44/64/17 43/63/17 55/75/17 56/76/17
f 56/76/11 49/69/11 41/61/11 44/64/11
f 36/56/15 35/55/15 50/70/15 49/69/15
f 35/55/12 34/54/12 55/75/12 50/70/12
f 56/76/17 55/75/17 34/54/17 33/53/17
f 33/53/11 36/56/11 49/69/11 56/76/11
f 57/77/18 58/78/18 52/72/18 51/71/18
f 58/78/17 59/79/17 53/73/17 52/72/17
f 60/80/15 57/77/15 51/71/15 54/74/15
f 26/46/18 31/51/18 45/65/18 48/68/18
f 31/51/17 29/49/17 46/66/17 45/65/17
f 29/49/16 27/47/16 47/67/16 46/66/16
f 27/47/15 26/46/15 48/68/15 47/67/15
f 50/70/18 55/75/18 58/78/18 57/77/18
f 55/75/17 43/63/17 59/79/17 58/78/17
f 43/63/16 42/62/16 60/80/16 59/79/16
f 42/62/15 50/70/15 57/77/15 60/80/15
f 61/81/19 62/82/19 63/83/19 64/84/19
f 37/57/15 48/68/15 60/80/15 54/74/15
f 48/68/20 45/65/20 59/79/20 60/80/20
f 45/65/17 38/58/17 53/73/17 59/79/17
f 38/58/21 37/57/21 62/82/21 61/81/21
f 37/57/15 54/74/15 63/83/15 62/82/15
f 54/74/22 53/73/22 64/84/22 63/83/22
f 53/73/17 38/58/17 61/81/17 64/84/17
