# Blender v2.77 (sub 0) OBJ File: ''
# www.blender.org
mtllib powerUpSpeed.mtl
o Power_up_speed
v -1.650949 0.055182 -0.210155
v -3.791876 1.073738 -1.228712
v -1.941566 1.073738 -1.228712
v 0.250350 0.055182 -0.210155
v 2.112682 0.055182 -0.210155
v -0.028250 1.073738 -1.228712
v 1.822061 1.073738 -1.228712
v 4.013976 0.055182 -0.210155
v -1.941566 -0.963374 0.808398
v -3.791876 -0.963374 0.808398
v 1.822061 -0.963374 0.808398
v -0.028250 -0.963374 0.808398
v -1.650949 0.686175 0.420838
v 0.250350 0.686175 0.420838
v -1.941566 1.704731 -0.597718
v -3.791876 1.704731 -0.597718
v 2.112682 0.686175 0.420838
v 4.013976 0.686175 0.420838
v 1.822061 1.704731 -0.597718
v -0.028250 1.704731 -0.597718
v -3.791876 -0.332381 1.439392
v -1.941566 -0.332381 1.439392
v -0.028250 -0.332381 1.439392
v 1.822061 -0.332381 1.439392
v -2.290445 3.531456 3.314397
v -4.792867 3.531457 1.598047
v -4.792876 1.899364 3.314397
v -4.792876 -2.996911 1.598046
v -2.290456 -2.996912 3.314396
v -4.792867 -1.364820 3.314397
v 5.216828 3.531457 1.598047
v 2.714391 3.531456 3.314397
v 5.216828 1.899364 3.314397
v 2.714391 -2.996912 3.314396
v 5.216812 -2.996911 1.598046
v 5.216828 -1.364820 3.314397
v 2.714391 3.531457 -3.550999
v 5.216828 3.531457 -1.834646
v 5.216828 1.899365 -3.550999
v 5.216812 -2.996911 -1.834647
v 2.714391 -2.996911 -3.551000
v 5.216828 -1.364818 -3.551000
v -4.792867 3.531457 -1.834646
v -2.290445 3.531457 -3.550999
v -4.792876 1.899365 -3.550999
v -2.290456 -2.996911 -3.551000
v -4.792876 -2.996911 -1.834647
v -4.792867 -1.364818 -3.551000
vt 0.4235 0.4543
vt 0.3833 0.5260
vt 0.4180 0.5260
vt 0.4592 0.4526
vt 0.4942 0.4543
vt 0.4540 0.5260
vt 0.4888 0.5260
vt 0.5300 0.4526
vt 0.4180 0.3793
vt 0.3833 0.3793
vt 0.4888 0.3793
vt 0.4540 0.3793
vt 0.4235 0.4543
vt 0.4592 0.4526
vt 0.4180 0.5260
vt 0.3833 0.5260
vt 0.4942 0.4543
vt 0.5300 0.4526
vt 0.4888 0.5260
vt 0.4540 0.5260
vt 0.3833 0.3793
vt 0.4180 0.3793
vt 0.4540 0.3793
vt 0.4888 0.3793
vt 0.5300 0.4526
vt 0.5300 0.4526
vt 0.4888 0.5260
vt 0.4888 0.5260
vt 0.4540 0.5260
vt 0.4540 0.5260
vt 0.4942 0.4543
vt 0.4942 0.4543
vt 0.4235 0.4543
vt 0.4235 0.4543
vt 0.3833 0.3793
vt 0.3833 0.3793
vt 0.4180 0.3793
vt 0.4180 0.3793
vt 0.4592 0.4526
vt 0.4592 0.4526
vt 0.8565 0.5799
vt 0.8545 0.5725
vt 0.8619 0.5745
vt 0.8825 0.5745
vt 0.8775 0.5803
vt 0.8726 0.5744
vt 0.8546 0.5981
vt 0.8565 0.5907
vt 0.8619 0.5961
vt 0.8774 0.5902
vt 0.8819 0.5963
vt 0.8727 0.5962
vt 0.8973 0.6236
vt 0.8921 0.6181
vt 0.8995 0.6163
vt 0.8927 0.5965
vt 0.8982 0.5913
vt 0.9000 0.5987
vt 0.8915 0.6396
vt 0.8970 0.6343
vt 0.8988 0.6417
vt 0.8813 0.6178
vt 0.8761 0.6122
vt 0.8764 0.6015
vt 0.8985 0.5804
vt 0.8932 0.5749
vt 0.9007 0.5731
vt 0.8807 0.6393
vt 0.8755 0.6338
vt 0.8758 0.6230
vt 0.8564 0.5583
vt 0.8618 0.5529
vt 0.8725 0.5529
vt 0.8779 0.5582
vt 0.8563 0.5368
vt 0.8617 0.5314
vt 0.8563 0.5476
vt 0.8724 0.5314
vt 0.8778 0.5367
vt 0.8779 0.5475
vt 0.8979 0.6021
vt 0.8976 0.6128
vt 0.8564 0.5691
vt 0.8780 0.5690
vn 0.0000 -0.7071 -0.7071
vn 0.0000 0.7071 0.7071
vn 0.5492 0.5909 -0.5909
vn 0.0000 0.7071 -0.7071
vn -0.5582 -0.5867 0.5867
vn -0.5582 0.5867 -0.5867
vn 0.0000 -0.7071 0.7071
vn 0.5492 -0.5909 0.5909
vn -0.4273 0.6552 0.6230
vn -0.4273 -0.6552 0.6230
vn 0.4273 0.6552 0.6230
vn 0.4273 -0.6552 0.6230
vn 0.4273 0.6552 -0.6230
vn 0.0000 -0.0000 1.0000
vn 0.4273 -0.6552 -0.6230
vn -0.4273 0.6552 -0.6230
vn 1.0000 -0.0000 -0.0000
vn -0.4273 -0.6552 -0.6230
vn 0.0000 1.0000 0.0000
vn 0.0000 -1.0000 -0.0000
vn -1.0000 0.0000 0.0000
vn 0.0000 0.0000 -1.0000
usemtl None
s off
f 1/1/1 2/2/1 3/3/1 4/4/1
f 5/5/1 6/6/1 7/7/1 8/8/1
f 1/1/1 4/4/1 9/9/1 10/10/1
f 5/5/1 8/8/1 11/11/1 12/12/1
f 13/13/2 14/14/2 15/15/2 16/16/2
f 17/17/2 18/18/2 19/19/2 20/20/2
f 13/13/2 21/21/2 22/22/2 14/14/2
f 17/17/2 23/23/2 24/24/2 18/18/2
f 14/14/3 4/4/3 3/3/3 15/15/3
f 15/15/4 3/3/4 2/2/4 16/16/4
f 16/16/5 2/2/5 1/1/5 13/13/5
f 13/25/6 1/26/6 10/27/6 21/28/6
f 21/28/7 10/27/7 9/29/7 22/30/7
f 22/30/8 9/29/8 4/31/8 14/32/8
f 18/33/3 8/34/3 7/35/3 19/36/3
f 19/36/4 7/35/4 6/37/4 20/38/4
f 20/38/5 6/37/5 5/39/5 17/40/5
f 17/17/6 5/5/6 12/12/6 23/23/6
f 23/23/7 12/12/7 11/11/7 24/24/7
f 24/24/8 11/11/8 8/8/8 18/18/8
f 25/41/9 26/42/9 27/43/9
f 28/44/10 29/45/10 30/46/10
f 31/47/11 32/48/11 33/49/11
f 34/50/12 35/51/12 36/52/12
f 37/53/13 38/54/13 39/55/13
f 36/52/14 30/46/14 29/45/14 34/50/14
f 40/56/15 41/57/15 42/58/15
f 43/59/16 44/60/16 45/61/16
f 31/62/17 33/63/17 36/64/17 35/51/17
f 46/65/18 47/66/18 48/67/18
f 31/62/19 26/68/19 25/69/19 32/70/19
f 40/56/20 47/66/20 46/65/20 41/57/20
f 43/71/21 45/72/21 48/73/21 47/74/21
f 37/75/22 39/76/22 45/72/22 44/77/22
f 25/41/14 27/43/14 33/49/14 32/48/14
f 33/49/14 27/43/14 30/46/14 36/52/14
f 29/45/20 28/44/20 35/51/20 34/50/20
f 35/51/20 28/44/20 47/66/20 40/56/20
f 48/73/22 42/78/22 41/79/22 46/80/22
f 45/72/22 39/76/22 42/78/22 48/73/22
f 44/60/19 43/59/19 38/54/19 37/53/19
f 38/54/19 43/59/19 26/68/19 31/62/19
f 38/54/17 40/56/17 42/81/17 39/82/17
f 31/62/17 35/51/17 40/56/17 38/54/17
f 26/83/21 28/84/21 30/46/21 27/43/21
f 43/71/21 47/74/21 28/84/21 26/83/21
